<svg width="44" height="44" viewBox="0 0 44 44" fill="none" xmlns="http://www.w3.org/2000/svg">
<path d="M36.6673 25.6757V19.545C36.6673 18.0453 36.6673 17.2955 36.3887 16.6208C36.11 15.9462 35.5802 15.4163 34.5187 14.3567L25.836 5.6685C24.9212 4.75367 24.4647 4.29717 23.8963 4.02584C23.7787 3.96934 23.6581 3.91915 23.5352 3.8755C22.943 3.6665 22.2958 3.6665 21.0033 3.6665C15.0542 3.6665 12.0787 3.6665 10.0638 5.29084C9.65688 5.61947 9.28627 5.99069 8.95832 6.39817C7.33398 8.41484 7.33398 11.3903 7.33398 17.3432V25.6757C7.33398 32.5928 7.33398 36.0523 9.48265 38.201C11.2115 39.9298 13.7873 40.2672 18.334 40.3332M23.834 4.58317V5.49984C23.834 10.6882 23.834 13.2823 25.4455 14.8938C27.0552 16.5053 29.6493 16.5053 34.834 16.5053H35.7507" stroke="white" stroke-width="2.5" stroke-linecap="round" stroke-linejoin="round"/>
<path d="M20.168 29.3333L22.0013 33C22.4468 29.8907 25.1858 27.5 28.418 27.5C30.5996 27.5 32.5246 28.5872 33.6851 30.25M36.668 38.5L34.8346 34.8333C34.3891 37.9427 31.6501 40.3333 28.418 40.3333C26.2363 40.3333 24.3113 39.2462 23.1508 37.5833" stroke="#1B9A5B" stroke-width="2.5" stroke-linecap="round" stroke-linejoin="round"/>
</svg>
