<svg width="44" height="44" viewBox="0 0 44 44" fill="none" xmlns="http://www.w3.org/2000/svg">
<path d="M16.5 38.4999V27.4999C16.5 26.5275 16.8863 25.5948 17.5739 24.9072C18.2616 24.2196 19.1942 23.8333 20.1667 23.8333H23.8333C24.8058 23.8333 25.7384 24.2196 26.4261 24.9072C27.1137 25.5948 27.5 26.5275 27.5 27.4999M23.8333 40.3333L29.3333 34.8333L33 38.4999L40.3333 31.1666" stroke="#1B9A5B" stroke-width="2.5" stroke-linecap="round" stroke-linejoin="round"/>
<path d="M34.834 31.1665H40.334V36.6665" stroke="white" stroke-width="2.5" stroke-linecap="round" stroke-linejoin="round"/>
<path d="M34.8333 23.8333V22H38.5L22 5.5L5.5 22H9.16667V34.8333C9.16667 35.8058 9.55298 36.7384 10.2406 37.4261C10.9282 38.1137 11.8609 38.5 12.8333 38.5H17.4167" stroke="white" stroke-width="2.5" stroke-linecap="round" stroke-linejoin="round"/>
</svg>
