<svg width="44" height="44" viewBox="0 0 44 44" fill="none" xmlns="http://www.w3.org/2000/svg">
<path d="M3.66602 21.9998C3.66602 30.6422 3.66602 34.9615 6.35185 37.6473C9.03585 40.3313 13.357 40.3313 21.9993 40.3313C30.6417 40.3313 34.9628 40.3313 37.6487 37.6473C40.1365 35.1595 40.318 31.2673 40.3327 23.8313M20.166 3.6665C12.7318 3.67934 8.83968 3.86267 6.35185 6.3505C4.85402 7.8465 4.19218 9.85217 3.89885 12.8332" stroke="white" stroke-width="2.5" stroke-linecap="round"/>
<path d="M23.8333 20.1665L40.3333 3.6665M40.3333 3.6665H30.536M40.3333 3.6665V13.4638M38.5 5.49984L22 21.9998M22 21.9998H29.3333M22 21.9998V14.6665" stroke="#1B9A5B" stroke-width="2.5" stroke-linecap="round" stroke-linejoin="round"/>
</svg>
