<svg width="44" height="44" viewBox="0 0 44 44" fill="none" xmlns="http://www.w3.org/2000/svg">
<path d="M8.6671 29.5843C5.8346 26.75 4.41744 25.3346 3.89127 23.4958C3.36327 21.657 3.81427 19.7045 4.71627 15.8013L5.2351 13.55C5.99227 10.2646 6.37177 8.62197 7.4956 7.4963C8.61944 6.37063 10.2639 5.99297 13.5493 5.2358L15.8006 4.71513C19.7056 3.81497 21.6563 3.36397 23.4951 3.89013C25.3339 4.41813 26.7493 5.8353 29.5818 8.6678L32.9368 12.0228C37.8703 16.9545 40.3324 19.4185 40.3324 22.4801C40.3324 25.5436 37.8684 28.0076 32.9386 32.9375C28.0069 37.8691 25.5429 40.3331 22.4794 40.3331C19.4178 40.3331 16.9519 37.8691 12.0221 32.9393L8.6671 29.5843Z" stroke="white" stroke-width="2"/>
<path d="M18.3719 18.8706C19.8039 17.4386 19.8039 15.117 18.3719 13.6851C16.94 12.2532 14.6184 12.2532 13.1865 13.6851C11.7546 15.117 11.7546 17.4386 13.1865 18.8706C14.6184 20.3025 16.94 20.3025 18.3719 18.8706Z" stroke="#1B9A5B" stroke-width="2"/>
<path d="M21.1602 33.9163L33.955 21.1196" stroke="#1B9A5B" stroke-width="2" stroke-linecap="round"/>
</svg>
